PathFileType	4	(X/Y/Z)	C:\Users\Biomechanik\SynologyDrive\AlexP\Athlete_03\Athlete_3_25_03_31\Squat_35kg_02\marker_experimental.trc
DataRate	CameraRate	NumFrames	NumMarkers	Units	OrigDataRate	OrigDataStartFrame	OrigNumFrames
200.000000	200.000000	4	55	mm	200.000000	66	530
Frame#	Time	BL			BR			GLAB			RFHD			LFHD			C7			T6			SPINMOL			SPINM2			SPINM3			T12			BELTOL			BELT2			BELT3			SACROL			SACR2			SACR3			LTHOL			LTH2			LTH3			LSHAOL			LSHA2			LSHA3			LHEE			LTOE			LM5			RTHOL			RTH2			RTH3			RSHAOL			RSHA2			RSHA3			RHEE			RTOE			RM5			STRN			XIPH			LACR			LUAOL			LUA2			LUA3			LLAOL			LLA2			LLA3			LWRR			LWRU			RACR			RUAOL			RUA2			RUA3			RLAOL			RLA2			RLA3			RWRR			RWRU			
		X1	Y1	Z1	X2	Y2	Z2	X3	Y3	Z3	X4	Y4	Z4	X5	Y5	Z5	X6	Y6	Z6	X7	Y7	Z7	X8	Y8	Z8	X9	Y9	Z9	X10	Y10	Z10	X11	Y11	Z11	X12	Y12	Z12	X13	Y13	Z13	X14	Y14	Z14	X15	Y15	Z15	X16	Y16	Z16	X17	Y17	Z17	X18	Y18	Z18	X19	Y19	Z19	X20	Y20	Z20	X21	Y21	Z21	X22	Y22	Z22	X23	Y23	Z23	X24	Y24	Z24	X25	Y25	Z25	X26	Y26	Z26	X27	Y27	Z27	X28	Y28	Z28	X29	Y29	Z29	X30	Y30	Z30	X31	Y31	Z31	X32	Y32	Z32	X33	Y33	Z33	X34	Y34	Z34	X35	Y35	Z35	X36	Y36	Z36	X37	Y37	Z37	X38	Y38	Z38	X39	Y39	Z39	X40	Y40	Z40	X41	Y41	Z41	X42	Y42	Z42	X43	Y43	Z43	X44	Y44	Z44	X45	Y45	Z45	X46	Y46	Z46	X47	Y47	Z47	X48	Y48	Z48	X49	Y49	Z49	X50	Y50	Z50	X51	Y51	Z51	X52	Y52	Z52	X53	Y53	Z53	X54	Y54	Z54	X55	Y55	Z55	

67	0.33	200.3712310791016	1323.225830078125	-2219.584228515625	175.6790008544922	1363.851196289062	-199.4889221191405	468.8720397949219	1543.664428710938	-1177.515747070312	416.9260559082031	1567.085571289062	-1115.025756835938	426.1647033691406	1567.015747070312	-1250.56689453125	238.6928100585938	1412.874389648438	-1188.91162109375	134.9596405029297	1274.021118164062	-1197.932250976562	116.3083190917969	1241.639526367188	-1216.586669921875	106.3682556152344	1235.583618164062	-1167.738159179688	99.39928436279297	1179.402709960938	-1201.801635742188	90.90100860595703	1110.900756835938	-1201.90966796875	62.37266540527344	1079.553466796875	-1218.05810546875	60.87397003173828	1075.103759765625	-1167.992065429688	44.25416946411133	1018.72021484375	-1199.4130859375	18.27816009521484	940.4383544921876	-1227.32470703125	17.93085098266602	939.2576904296876	-1175.693603515625	9.891992568969727	879.2864379882814	-1202.825561523438	113.2790451049805	672.5921020507814	-1427.676391601562	80.92820739746094	604.2185058593751	-1403.32080078125	122.5066070556641	611.6890258789064	-1430.517333984375	119.2336502075195	333.7571105957032	-1516.694458007812	75.89140319824219	267.045379638672	-1510.443481445312	123.8373565673828	272.2991943359376	-1526.077880859375	76.70093536376953	68.80442047119149	-1487.30615234375	283.9512329101562	49.53165817260751	-1545.744506835938	216.2545776367188	25.65847015380869	-1633.308349609375	75.31805419921875	680.6893920898439	-983.1422729492188	125.7778930664062	639.0709228515626	-937.0844116210938	90.55963134765625	622.5981445312501	-968.1741943359375	68.06564331054688	349.7475280761719	-886.3903198242188	99.39034271240234	284.7426757812501	-855.1297607421875	59.2401237487793	287.9664306640626	-884.373046875	54.28128051757812	62.74370193481451	-915.657958984375	251.1177825927734	48.0612182617188	-834.4432373046875	168.7844848632812	35.40335845947271	-755.2774658203125	371.8760070800781	1272.484619140625	-1188.371704101562	358.3342895507812	1128.538696289062	-1185.20458984375	271.6535949707031	1372.103149414062	-1350.755126953125	158.0982818603516	1263.681762695312	-1441.615356445312	110.8010635375977	1219.854248046875	-1428.9619140625	138.7958679199219	1208.345092773438	-1470.26904296875	108.3950500488281	1142.369140625	-1538.855346679688	178.2578125	1137.380981445312	-1576.655395507812	150.9358978271484	1178.431884765625	-1564.91162109375	203.4332885742188	1258.79052734375	-1604.431640625	224.1770935058594	1282.42724609375	-1531.411743164062	274.7469482421875	1373.512573242188	-1033.440185546875	162.6361083984375	1268.3857421875	-952.5283203124999	133.6864624023438	1216.402099609375	-923.2965698242186	115.2906112670898	1226.483276367188	-971.1224975585936	115.8602752685547	1145.064086914062	-836.0740356445311	121.615852355957	1223.994873046875	-823.2266845703124	152.9537506103516	1186.984252929688	-808.5128784179686	188.5738677978516	1270.058349609375	-783.0430297851561	221.628173828125	1300.6103515625	-849.9265136718749	
68	0.335	200.4546966552734	1322.743774414063	-2219.713623046875	176.0627899169922	1363.500244140625	-199.6163635253905	468.9999389648438	1543.043334960938	-1177.571655273438	417.0028991699219	1566.424438476562	-1115.111083984375	426.32958984375	1566.388427734375	-1250.646118164062	238.8585510253906	1412.261108398438	-1189.108032226562	134.9707794189453	1273.603271484375	-1198.018920898438	116.3447113037109	1241.229370117188	-1216.69140625	106.434700012207	1235.1591796875	-1167.83642578125	99.36503601074219	1179.0087890625	-1201.92626953125	90.60134887695312	1110.706909179688	-1202.038330078125	61.91561889648438	1079.577026367188	-1218.140869140625	60.41532516479492	1075.158325195312	-1168.065795898438	43.52461624145508	1018.835388183594	-1199.455078125	17.3303108215332	940.3826293945314	-1227.36865234375	16.99957847595215	939.2803344726564	-1175.735717773438	8.706521034240723	879.3001098632814	-1202.78125	113.3373565673828	671.8605957031251	-1428.165893554688	81.67276763916016	603.0932006835939	-1404.02880859375	123.1360778808594	611.0661621093751	-1431.257690429688	120.8212585449219	333.8757934570314	-1517.603881835938	77.11330413818359	267.4193420410157	-1511.204956054688	125.1075439453125	272.3640136718751	-1526.77880859375	76.81417846679688	68.90458679199227	-1487.171020507812	283.9947204589844	49.47016525268564	-1545.68359375	216.2778778076172	25.74375534057627	-1633.249633789062	75.27257537841797	680.1517333984376	-982.6229248046875	126.0633010864258	639.1250610351564	-936.3956909179688	91.01947784423828	622.2377319335939	-967.4203491210938	69.3172607421875	349.9271240234376	-885.3770141601562	100.3774108886719	284.6864013671876	-854.3508911132812	60.23812866210938	288.1791992187501	-883.5657958984375	54.24515533447266	62.7714576721192	-915.6187744140625	251.1177520751953	48.07104492187505	-834.4505615234375	168.7961273193359	35.41863250732427	-755.301513671875	371.9338684082031	1271.831909179688	-1188.542846679688	358.1461181640625	1127.849609375	-1185.408813476562	271.8497924804688	1371.475219726562	-1350.924926757812	158.3258209228516	1263.00390625	-1441.907470703125	111.0804901123047	1219.124267578125	-1429.239868164062	139.0591430664062	1207.655029296875	-1470.563354492188	108.8342895507812	1141.613891601562	-1539.15478515625	178.7336273193359	1136.750854492188	-1576.893920898438	151.3462524414062	1177.751220703125	-1565.1552734375	203.7322540283203	1258.233154296875	-1604.566772460938	224.4126739501953	1281.854248046875	-1531.526489257812	275.0160522460938	1372.861083984375	-1033.587280273438	162.8565826416016	1267.754272460938	-952.5104980468749	133.9644165039062	1215.734985351562	-923.3205566406249	115.5729141235352	1225.805786132812	-971.1390380859374	116.2535247802734	1144.434936523438	-836.0537109374999	121.9559783935547	1223.37548828125	-823.2603149414061	153.3479461669922	1186.395263671875	-808.5504150390624	188.9197998046875	1269.512451171875	-783.1574096679686	221.907958984375	1300.05126953125	-850.0764160156249	
69	0.34	200.5508270263672	1322.21337890625	-2219.846435546875	176.4631958007812	1363.089965820312	-199.7471160888671	469.1311645507812	1542.335083007812	-1177.625122070312	417.0807189941406	1565.67578125	-1115.195678710938	426.5002746582031	1565.675903320312	-1250.722045898438	239.0231475830078	1411.576782226562	-1189.310180664062	134.9708251953125	1273.120727539062	-1198.11962890625	116.3696060180664	1240.75390625	-1216.813842773438	106.4869384765625	1234.669921875	-1167.953002929688	99.3115234375	1178.55126953125	-1202.070678710938	90.28128051757812	1110.447875976562	-1202.188842773438	61.43995666503906	1079.536743164062	-1218.246459960938	59.93129348754883	1075.149536132812	-1168.16162109375	42.77295303344727	1018.888305664063	-1199.522338867188	16.36777877807617	940.2664184570314	-1227.4375	16.0487232208252	939.2426147460939	-1175.802368164062	7.491315841674805	879.2562866210939	-1202.761596679688	113.4330673217773	671.0868530273439	-1428.718872070312	82.44109344482422	601.9312133789064	-1404.823974609375	123.8025436401367	610.4104003906251	-1432.062377929688	122.4339141845703	333.9845275878907	-1518.5595703125	78.35104370117188	267.7903137207032	-1512.017333984375	126.3960723876953	272.4219055175782	-1527.523071289062	76.92416381835938	69.00232696533212	-1487.042236328125	284.0400390625	49.41186904907236	-1545.621948242188	216.3007965087891	25.82555770874033	-1633.1943359375	75.2606201171875	679.5700683593751	-982.0502319335938	126.3904342651367	639.1702880859376	-935.6439819335938	91.53490447998047	621.8463134765626	-966.5977172851562	70.6468505859375	350.1109008789063	-884.2982177734375	101.4316101074219	284.6207885742188	-853.5317993164062	61.29617691040039	288.4004211425782	-882.703125	54.2103271484375	62.80758666992193	-915.5823364257812	251.1198120117188	48.08037948608403	-834.4595336914062	168.8095245361328	35.43599700927739	-755.3264770507812	371.9792785644531	1271.09228515625	-1188.722534179688	357.9342041015625	1127.074462890625	-1185.622314453125	272.0564880371094	1370.780639648438	-1351.104248046875	158.5626983642578	1262.265869140625	-1442.210693359375	111.3669357299805	1218.334716796875	-1429.5380859375	139.33203125	1206.910034179688	-1470.8759765625	109.2880020141602	1140.803588867188	-1539.480712890625	179.2275238037109	1136.068481445312	-1577.153930664062	151.7722778320312	1177.017700195312	-1565.41943359375	204.0452728271484	1257.628051757812	-1604.710083007812	224.6589660644531	1281.228271484375	-1531.646606445312	275.2949523925781	1372.131958007812	-1033.741333007812	163.0771942138672	1267.056640625	-952.4969482421874	134.2422180175781	1215.005493164062	-923.3407592773436	115.8503799438477	1225.062622070312	-971.1506347656249	116.6512832641602	1143.750244140625	-836.0210571289061	122.3018341064453	1222.700805664062	-823.2868041992186	153.7488708496094	1185.751586914062	-808.5798950195311	189.2745666503906	1268.912353515625	-783.2715454101561	222.1974945068359	1299.43359375	-850.2273559570311	
70	0.345	200.6594848632812	1321.630493164063	-2219.98291015625	176.8800201416016	1362.615478515625	-199.8814392089843	469.2658081054688	1541.535400390625	-1177.677001953125	417.1598815917969	1564.83642578125	-1115.279907226562	426.676513671875	1564.874389648438	-1250.79541015625	239.1852569580078	1410.818237304688	-1189.517822265625	134.9595489501953	1272.569946289062	-1198.235473632812	116.3822326660156	1240.209594726562	-1216.95458984375	106.5239181518555	1234.11181640625	-1168.0888671875	99.23817443847656	1178.026733398438	-1202.235473632812	89.94147491455078	1110.11865234375	-1202.361450195312	60.94682693481445	1079.426635742188	-1218.375610351562	59.42231369018555	1075.0712890625	-1168.280883789062	42.00208282470703	1018.872436523438	-1199.61572265625	15.39180088043213	940.0823364257814	-1227.5341796875	15.0795726776123	939.1362304687501	-1175.896606445312	6.250238418579102	879.1467285156251	-1202.770385742188	113.5639038085938	670.2750244140626	-1429.338500976562	83.22499084472656	600.7404174804689	-1405.708129882812	124.4993133544922	609.7252197265626	-1432.931884765625	124.0558929443359	334.0792846679689	-1519.557861328125	79.59379577636719	268.1516418457032	-1512.874267578125	127.6903686523438	272.4691467285157	-1528.307373046875	77.02766418457031	69.09513092041024	-1486.923828125	284.0856628417969	49.35815811157236	-1545.561157226562	216.3225250244141	25.90162086486826	-1633.143798828125	75.28303527832031	678.9413452148439	-981.419189453125	126.7597045898438	639.2021484375001	-934.8264770507812	92.10472869873047	621.4209594726564	-965.7030029296875	72.05261993408203	350.2966308593751	-883.1553344726562	102.5520401000977	284.5443725585938	-852.6741333007812	62.41303634643555	288.6279907226563	-881.7861938476562	54.17768859863281	62.8529891967774	-915.5494384765625	251.1243133544922	48.08885192871099	-834.470703125	168.8248138427734	35.45574188232427	-755.3524780273438	372.0117797851562	1270.2607421875	-1188.91064453125	357.6979675292969	1126.208740234375	-1185.844970703125	272.2731323242188	1370.01513671875	-1351.293334960938	158.8076782226562	1261.4638671875	-1442.5244140625	111.6586608886719	1217.482788085938	-1429.856323242188	139.6130065917969	1206.10693359375	-1471.206787109375	109.7537384033203	1139.935302734375	-1539.83349609375	179.7373046875	1135.33056640625	-1577.435546875	152.2116394042969	1176.22802734375	-1565.704711914062	204.3703918457031	1256.971801757812	-1604.862060546875	224.9146728515625	1280.545288085938	-1531.772583007812	275.5824890136719	1371.32177734375	-1033.90234375	163.2965240478516	1266.289428710938	-952.4882812499999	134.5176239013672	1214.211181640625	-923.3557739257811	116.1209487915039	1224.250732421875	-971.1571044921874	117.05126953125	1143.00732421875	-835.9760742187499	122.6524200439453	1221.968017578125	-823.3059082031249	154.1545715332031	1185.050048828125	-808.6015014648436	189.6368865966797	1268.254638671875	-783.3856201171874	222.4955596923828	1298.753784179688	-850.3794555664061	
